# xmcd CD database file generated by Grip 2.96
# 
# Track frame offsets:
#       150
#       14454
#       34582
#       54083
#       75939
#       90216
#       105217
#       122085
#       139914
#       158147
#       176784
#       191242
#       207553
#       227068
#       251027
#       270723
#       293289
#       307454
# 
# Disc length: 4343 seconds
# 
# Revision: 0
# Processed by: cddbd v1.4PL0 Copyright (c) Steve Scherf et al.
# Submitted via: Grip 2.96
# 
DISCID=ef10f512
DTITLE=Code Blue - Code Blue- July 14,2002
DYEAR=1900
DGENRE=
TTITLE0=Mama Don't Dance
TTITLE1=Come Together
TTITLE2=Cocaine
TTITLE3=Feelin' Alright
TTITLE4=Hard To Handle
TTITLE5=Keep You Hands To Yourself
TTITLE6=hangin' around
TTITLE7=If I wanted to 
TTITLE8=House of the rising son
TTITLE9=One time johnny
TTITLE10=hurricane annie
TTITLE11=tell my baby
TTITLE12=Lookin' for a lover
TTITLE13=Turn The Page
TTITLE14=I need an answer
TTITLE15=3 legged dog
TTITLE16=It Hurts me too
TTITLE17=It Hurts Me Too (1)
EXTD=
EXTT0=
EXTT1=
EXTT2=
EXTT3=
EXTT4=
EXTT5=
EXTT6=
EXTT7=
EXTT8=
EXTT9=
EXTT10=
EXTT11=
EXTT12=
EXTT13=
EXTT14=
EXTT15=
EXTT16=
EXTT17=
PLAYORDER=
